# File created by Blade
# Date/Time:  Mon Sep 22 15:50:36 2014
# Frame Rate: 120.000 fps
#------------------------------------------------------
:FULLY-SPECIFIED
:DEGREES
1449
root 2.162361 37.021475 3.058618 -2.097020 -9.168744 1.168146
RightUpLeg 8.944247 -0.947212 -3.346828
RightLeg -4.534346 -0.000000 0.000000
RightFoot -11.855241 -13.874641 15.325018
RightToeBase 14.589687 -0.000000 -0.000000
LeftUpLeg 10.325494 7.028262 2.054535
LeftLeg -3.674159 -0.000000 0.000000
LeftFoot -10.588343 14.815038 -17.827581
LeftToeBase 9.419963 -0.000000 -0.000000
Spine 0.795198 -19.891664 -3.819138
RightShoulder 10.925311 -23.369180 -11.167294
RightArm 31.636419 -34.223238 55.373423
RightForeArm 14.386359 -0.000000 32.272824
RightHand 3.478502 -0.000000 0.340476
RightHandThumb1 -24.326973 -0.000000 -32.862282
LeftShoulder 1.602548 20.592919 17.219339
LeftArm 81.541564 -37.542955 -99.919207
LeftForeArm -55.483625 -0.000000 120.664550
LeftHand -14.490641 -0.000000 12.089971
LeftHandThumb1 -26.253704 0.000000 33.147579
Head 16.874139 19.684976 13.049156
1450
root 2.164838 37.020864 3.057013 -2.032503 -9.113618 1.178065
RightUpLeg 8.903876 -1.018102 -3.363612
RightLeg -4.571930 -0.000000 0.000000
RightFoot -11.840029 -13.867950 15.308603
RightToeBase 14.640877 -0.000000 -0.000000
LeftUpLeg 10.268782 7.002924 2.037794
LeftLeg -3.718632 -0.000000 0.000000
LeftFoot -10.592620 14.791546 -17.892336
LeftToeBase 9.542153 -0.000000 -0.000000
Spine 0.717465 -19.914669 -3.781460
RightShoulder 10.940473 -23.380530 -11.165285
RightArm 31.562153 -34.158388 55.444694
RightForeArm 14.403191 -0.000000 32.484490
RightHand 3.415838 0.000000 0.380232
RightHandThumb1 -24.326973 -0.000000 -32.862282
LeftShoulder 1.714484 20.465993 17.382445
LeftArm 81.371673 -37.623858 -99.302992
LeftForeArm -55.515790 -0.000000 120.517493
LeftHand -14.484823 0.000000 11.845930
LeftHandThumb1 -26.253704 0.000000 33.147579
Head 16.984238 19.741452 12.959573
1451
root 2.167786 37.020376 3.053105 -1.953002 -9.063937 1.196126
RightUpLeg 8.841267 -1.187435 -3.397807
RightLeg -4.612833 -0.000000 0.000000
RightFoot -11.796504 -13.770795 15.273244
RightToeBase 14.656068 -0.000000 -0.000000
LeftUpLeg 10.188053 6.968836 2.006345
LeftLeg -3.750557 -0.000000 0.000000
LeftFoot -10.568700 14.777710 -17.910825
LeftToeBase 9.557048 -0.000000 -0.000000
Spine 0.616608 -19.914761 -3.743212
RightShoulder 10.937344 -23.380842 -11.153985
RightArm 31.497247 -34.125603 55.509622
RightForeArm 14.444585 -0.000000 32.655479
RightHand 3.384682 -0.000000 0.443734
RightHandThumb1 -24.326973 -0.000000 -32.862282
LeftShoulder 1.840797 20.341801 17.542350
LeftArm 81.219252 -37.731462 -98.596275
LeftForeArm -55.528601 -0.000000 120.240004
LeftHand -14.320069 -0.000000 11.486685
LeftHandThumb1 -26.253704 0.000000 33.147579
Head 17.113487 19.826779 12.898263
1452
root 2.169657 37.019864 3.050288 -1.880075 -9.001105 1.199957
RightUpLeg 8.793935 -1.270626 -3.404367
RightLeg -4.658404 -0.000000 0.000000
RightFoot -11.774464 -13.778579 15.258369
RightToeBase 14.647059 -0.000000 -0.000000
LeftUpLeg 10.116310 6.901274 1.985714
LeftLeg -3.780693 -0.000000 0.000000
LeftFoot -10.500964 14.796241 -17.803036
LeftToeBase 9.411350 -0.000000 -0.000000
Spine 0.522770 -19.949348 -3.687218
RightShoulder 10.955547 -23.357087 -11.157479
RightArm 31.441028 -34.126169 55.569926
RightForeArm 14.540544 -0.000000 32.759429
RightHand 3.506502 -0.000000 0.316033
RightHandThumb1 -24.326973 -0.000000 -32.862282
LeftShoulder 1.920489 20.243015 17.671420
LeftArm 81.091227 -37.843798 -97.781165
LeftForeArm -55.623553 -0.000000 119.865407
LeftHand -14.149958 -0.000000 10.998142
LeftHandThumb1 -26.253704 0.000000 33.147579
Head 17.247645 19.989672 12.847079
1453
root 2.173542 37.020124 3.049722 -1.833451 -8.940456 1.224975
RightUpLeg 8.765754 -1.324251 -3.435155
RightLeg -4.679685 -0.000000 0.000000
RightFoot -11.777660 -13.782327 15.278309
RightToeBase 14.648180 -0.000000 -0.000000
LeftUpLeg 10.070986 6.812728 1.943802
LeftLeg -3.811687 -0.000000 0.000000
LeftFoot -10.476104 14.822886 -17.816888
LeftToeBase 9.404236 -0.000000 -0.000000
Spine 0.459068 -19.980396 -3.663979
RightShoulder 10.966041 -23.363529 -11.156375
RightArm 31.429768 -34.116830 55.604612
RightForeArm 14.541259 -0.000000 32.875359
RightHand 3.435122 0.000000 0.362204
RightHandThumb1 -24.326973 -0.000000 -32.862282
LeftShoulder 1.983169 20.108004 17.789767
LeftArm 80.878597 -37.951708 -96.757386
LeftForeArm -55.785251 -0.000000 119.394306
LeftHand -13.992964 -0.000000 10.584854
LeftHandThumb1 -26.253704 0.000000 33.147579
Head 17.352946 20.128303 12.755737
1454
root 2.176626 37.019931 3.050921 -1.794792 -8.876697 1.255621
RightUpLeg 8.760162 -1.399642 -3.471573
RightLeg -4.737620 -0.000000 0.000000
RightFoot -11.688664 -13.876550 15.089377
RightToeBase 14.455742 -0.000000 -0.000000
LeftUpLeg 10.039299 6.733490 1.901099
LeftLeg -3.855833 -0.000000 0.000000
LeftFoot -10.499090 14.831166 -17.936969
LeftToeBase 9.579948 -0.000000 -0.000000
Spine 0.399369 -20.005056 -3.658312
RightShoulder 10.962990 -23.390603 -11.145167
RightArm 31.451585 -34.107582 55.632614
RightForeArm 14.619671 -0.000000 32.942753
RightHand 3.524384 -0.000000 0.206453
RightHandThumb1 -24.326973 -0.000000 -32.862282
LeftShoulder 2.074758 19.941074 17.979795
LeftArm 80.532363 -38.095808 -95.583885
LeftForeArm -56.114586 -0.000000 118.896216
LeftHand -14.019867 -0.000000 10.340708
LeftHandThumb1 -26.253704 0.000000 33.147579
Head 17.446243 20.259410 12.663307
1455
root 2.178809 37.019397 3.052842 -1.768510 -8.807155 1.283579
RightUpLeg 8.778989 -1.396250 -3.496200
RightLeg -4.805114 -0.000000 0.000000
RightFoot -11.695997 -13.892800 15.121147
RightToeBase 14.518794 -0.000000 -0.000000
LeftUpLeg 10.015680 6.655049 1.864040
LeftLeg -3.885664 -0.000000 0.000000
LeftFoot -10.469094 14.837303 -17.941717
LeftToeBase 9.541391 -0.000000 -0.000000
Spine 0.358247 -20.023816 -3.663661
RightShoulder 10.951620 -23.414203 -11.127494
RightArm 31.506189 -34.129895 55.598256
RightForeArm 14.712374 -0.000000 33.000767
RightHand 3.547881 -0.000000 0.270441
RightHandThumb1 -24.326973 -0.000000 -32.862282
LeftShoulder 2.146807 19.777832 18.179937
LeftArm 80.104788 -38.221178 -94.208420
LeftForeArm -56.260208 0.000000 118.353108
LeftHand -14.090230 -0.000000 10.110978
LeftHandThumb1 -26.253704 0.000000 33.147579
Head 17.522326 20.387708 12.599029
1456
root 2.181005 37.019231 3.053255 -1.741873 -8.743140 1.308352
RightUpLeg 8.802592 -1.345048 -3.513039
RightLeg -4.881251 -0.000000 0.000000
RightFoot -11.762713 -13.977932 15.300214
RightToeBase 14.589175 -0.000000 -0.000000
LeftUpLeg 9.988828 6.564981 1.827025
LeftLeg -3.912056 -0.000000 0.000000
LeftFoot -10.444478 14.869579 -17.927638
LeftToeBase 9.538238 -0.000000 -0.000000
Spine 0.323786 -20.028441 -3.666139
RightShoulder 10.940978 -23.418694 -11.116448
RightArm 31.561034 -34.169429 55.590548
RightForeArm 14.750638 0.000000 33.021389
RightHand 3.497688 -0.000000 0.296964
RightHandThumb1 -24.326973 -0.000000 -32.862282
LeftShoulder 2.188871 19.623458 18.384833
LeftArm 79.609873 -38.307316 -92.606135
LeftForeArm -56.450083 0.000000 117.718668
LeftHand -14.286136 -0.000000 9.915156
LeftHandThumb1 -26.253704 0.000000 33.147579
Head 17.573803 20.507792 12.505705
1457
root 2.183445 37.019325 3.052844 -1.713055 -8.689315 1.331464
RightUpLeg 8.795793 -1.365620 -3.533042
RightLeg -4.925370 -0.000000 0.000000
RightFoot -11.695752 -14.067949 15.131905
RightToeBase 14.507816 -0.000000 -0.000000
LeftUpLeg 9.954421 6.493771 1.792686
LeftLeg -3.928676 -0.000000 0.000000
LeftFoot -10.429520 14.883224 -17.953110
LeftToeBase 9.548198 -0.000000 -0.000000
Spine 0.287159 -20.016679 -3.659292
RightShoulder 10.959833 -23.390851 -11.116631
RightArm 31.566403 -34.229711 55.604707
RightForeArm 14.739057 -0.000000 33.038014
RightHand 3.485792 -0.000000 0.317769
RightHandThumb1 -24.326973 -0.000000 -32.862282
LeftShoulder 2.218097 19.504301 18.568065
LeftArm 79.021949 -38.377011 -90.703339
LeftForeArm -56.130080 -0.000000 117.091849
LeftHand -14.312838 0.000000 9.977438
LeftHandThumb1 -26.253704 0.000000 33.147579
Head 17.605633 20.642887 12.396278
1458
root 2.186066 37.020728 3.053016 -1.696907 -8.649358 1.346794
RightUpLeg 8.790532 -1.350928 -3.544303
RightLeg -4.939655 -0.000000 0.000000
RightFoot -11.684767 -14.138195 15.120506
RightToeBase 14.460026 -0.000000 -0.000000
LeftUpLeg 9.935396 6.428385 1.766394
LeftLeg -3.939460 -0.000000 0.000000
LeftFoot -10.422493 14.899676 -17.998010
LeftToeBase 9.559262 -0.000000 -0.000000
Spine 0.268820 -19.981960 -3.644515
RightShoulder 10.979360 -23.360195 -11.125189
RightArm 31.562715 -34.272334 55.651323
RightForeArm 14.714515 -0.000000 33.033353
RightHand 3.494340 -0.000000 0.242721
RightHandThumb1 -24.326973 -0.000000 -32.862282
LeftShoulder 2.234218 19.369106 18.745240
LeftArm 78.388515 -38.427568 -88.681622
LeftForeArm -56.328236 0.000000 116.334575
LeftHand -14.305488 -0.000000 9.828782
LeftHandThumb1 -26.253704 0.000000 33.147579
Head 17.620374 20.816296 12.274180
1459
root 2.187898 37.021561 3.052250 -1.683605 -8.596946 1.362968
RightUpLeg 8.786395 -1.362618 -3.559578
RightLeg -4.945658 -0.000000 0.000000
RightFoot -11.702241 -14.176601 15.132508
RightToeBase 14.510883 -0.000000 -0.000000
LeftUpLeg 9.911561 6.376581 1.743092
LeftLeg -3.944235 -0.000000 0.000000
LeftFoot -10.394815 14.910869 -17.981590
LeftToeBase 9.528024 -0.000000 -0.000000
Spine 0.249800 -19.947533 -3.644064
RightShoulder 11.020911 -23.343068 -11.134792
RightArm 31.561135 -34.321467 55.684634
RightForeArm 14.682298 -0.000000 33.030629
RightHand 3.487296 -0.000000 0.265428
RightHandThumb1 -24.326973 -0.000000 -32.862282
LeftShoulder 2.269077 19.223527 18.940110
LeftArm 77.588384 -38.461655 -86.335704
LeftForeArm -56.280647 0.000000 115.562000
LeftHand -14.332174 -0.000000 9.853740
LeftHandThumb1 -26.253704 0.000000 33.147579
Head 17.640248 20.924804 12.158205
